<svg width="100" height="28" viewBox="0 0 100 28" fill="none" xmlns="http://www.w3.org/2000/svg">
<g clip-path="url(#clip0_447_1420)">
<path d="M11.7213 9.7373L6.92188 18.196L11.7183 26.6547H19.5047L14.1785 18.196L19.5047 9.7373H11.7213Z" fill="#A4B6C8"/>
<path d="M87.0861 9.7373L92.4122 18.196L87.0861 26.6547H94.8702L99.6666 18.196L94.8702 9.7373H87.0861Z" fill="#A4B6C8"/>
<path d="M0.111084 26.6439V1.40625H6.93073V26.6439H0.111084Z" fill="white"/>
<path fill-rule="evenodd" clip-rule="evenodd" d="M28.3541 4.12061C28.3416 6.07247 26.75 7.64643 24.7951 7.64023C22.8402 7.63403 21.2586 6.05001 21.2585 4.09811C21.2591 3.15288 21.6378 2.24703 22.3104 1.58186C22.983 0.916694 23.8938 0.547313 24.8405 0.555807C26.7953 0.574584 28.3666 2.16874 28.3541 4.12061ZM28.2474 9.73752V26.6557H21.4277V9.73752H28.2474Z" fill="white"/>
<path d="M36.8572 9.73748V11.0442L36.9255 11.079C38.3396 9.99287 40.0664 9.39004 41.8503 9.3597C43.45 9.32721 45.0019 9.90499 46.1897 10.9753C47.2914 12.042 47.8427 13.5546 47.8427 16.031V26.6556H41.0238V17.0614C41.0775 16.4807 40.9047 15.9017 40.5415 15.445C40.19 15.1119 39.7168 14.9377 39.2328 14.9635C38.4024 14.9788 37.6063 15.2968 36.9945 15.8576V26.6556H30.1748L30.1755 9.73748H36.8572Z" fill="white"/>
<path d="M57.3578 22.4778C58.1843 22.4778 58.5982 22.2711 58.5982 21.7896C58.5982 20.8607 57.0825 21.0674 54.5341 20.3451C51.2622 19.417 49.7814 17.8354 49.7814 15.3932C49.8155 11.7479 53.1942 9.54785 57.6679 9.54785C60.0526 9.56812 62.4123 10.0347 64.6248 10.9234V16.2191C62.5472 15.1117 60.2585 14.4553 57.909 14.2931C57.0818 14.2931 56.7375 14.5339 56.7375 14.9465C56.7375 15.8058 58.1472 15.5998 60.7327 16.3221C64.0053 17.2502 65.5551 18.6925 65.5551 21.2733C65.521 25.0556 62.0422 27.2223 57.4616 27.2223C55.0388 27.218 52.6403 26.7398 50.4016 25.8149L50.4009 20.5177C52.5529 21.66 54.9252 22.3283 57.3578 22.4778Z" fill="white"/>
<path d="M73.5877 27.0342C72.001 27.0621 70.4583 26.512 69.2483 25.4867C68.0427 24.386 67.4922 22.8045 67.4922 20.26V9.74121H74.3118V19.3711C74.2328 19.9538 74.4082 20.5424 74.7933 20.9874C75.1351 21.314 75.5953 21.4876 76.0679 21.4681C76.9182 21.4367 77.7271 21.0939 78.3404 20.5052V9.74195H85.1593V26.6579H78.4784V25.2823L78.4102 25.246C77.0585 26.3815 75.3541 27.0135 73.5877 27.0342Z" fill="white"/>
</g>
<defs>
<clipPath id="clip0_447_1420">
<rect width="99.5555" height="26.6667" fill="white" transform="translate(0.111084 0.555664)"/>
</clipPath>
</defs>
</svg>
